<!-- <svg xmlns="http://www.w3.org/2000/svg" fill="none" class="icon icon-hamburger" viewBox="0 0 18 16"><path fill="currentColor" d="M1 .5a.5.5 0 1 0 0 1h15.71a.5.5 0 0 0 0-1zM.5 8a.5.5 0 0 1 .5-.5h15.71a.5.5 0 0 1 0 1H1A.5.5 0 0 1 .5 8m0 7a.5.5 0 0 1 .5-.5h15.71a.5.5 0 0 1 0 1H1a.5.5 0 0 1-.5-.5"/></svg> -->


<svg class="icon icon-hamburger" width="20" height="16" viewBox="0 0 20 16" fill="none" xmlns="http://www.w3.org/2000/svg">
<path d="M1 8H19M1 1.25H19M1 14.75H19" stroke="#081F2C" stroke-width="2" stroke-linecap="round" stroke-linejoin="round"/>
</svg>
